<?xml version="1.0" encoding="utf-8"?>
<svg version="1.2" baseProfile="tiny-ps" xmlns="http://www.w3.org/2000/svg" width="512px" height="512px" viewBox="5.5 0 512 512" preserveAspectRatio="xMidYMid meet">
 <g fill="#000000">
  <path d="M144.98 487.31 c-4.07 -2.14 -6.86 -8.09 -5.73 -12.21 0.86 -3.16 2.30 -4.61 7.93 -7.93 8.84 -5.19 16.07 -10.44 26.35 -19.28 11.51 -9.91 18.74 -17.41 20.78 -21.58 1.39 -2.84 1.45 -3.27 1.39 -11.25 -0.05 -6.96 -0.37 -10.66 -2.30 -22.76 -1.23 -7.93 -2.57 -17.30 -3 -20.73 -0.80 -6.59 -1.34 -8.03 -3.32 -8.94 -1.82 -0.86 -3.21 -0.75 -12.16 0.75 -9.91 1.66 -25.76 3.48 -30.15 3.48 -7.82 0 -13.01 -2.20 -18.32 -7.82 -5.25 -5.46 -6.69 -9.80 -8.09 -24.37 -0.32 -3.37 -1.18 -11.62 -1.87 -18.42 -0.75 -6.75 -1.55 -16.55 -1.87 -21.69 -0.32 -5.14 -0.91 -13.60 -1.34 -18.74 -0.43 -5.14 -1.02 -12.75 -1.34 -16.87 -0.32 -4.12 -0.91 -10.76 -1.34 -14.73 -0.43 -3.96 -1.18 -11.19 -1.61 -16.07 -0.43 -4.87 -1.02 -10.93 -1.34 -13.44 -0.27 -2.52 -0.54 -6.37 -0.54 -8.57 -0.05 -5.36 -0.86 -11.41 -1.82 -13.28 -0.86 -1.61 -4.07 -3.27 -8.62 -4.39 -7.28 -1.77 -13.66 -6.80 -15.58 -12.26 -1.50 -4.39 -1.39 -11.73 0.21 -15.26 2.41 -5.19 6 -7.87 13.76 -10.18 6.37 -1.93 7.50 -3 7.39 -7.18 -0.05 -3.48 -1.07 -5.89 -2.95 -7.12 -0.70 -0.43 -3.16 -1.50 -5.46 -2.30 -7.77 -2.84 -14.25 -7.93 -16.39 -12.80 -3.32 -7.77 -2.62 -14.51 2.04 -19.71 2.89 -3.21 6 -4.82 12.16 -6.37 7.34 -1.82 6.91 -1.02 7.23 -14.78 0.27 -11.73 0.27 -11.73 2.25 -15.80 5.03 -10.18 10.93 -13.07 29.03 -14.35 10.18 -0.75 25.23 -2.04 31.12 -2.68 5.30 -0.59 21.90 -1.87 30.79 -2.41 3.11 -0.16 8.41 -0.54 11.78 -0.86 3.37 -0.27 9.64 -0.75 13.92 -1.02 24.21 -1.61 31.97 -2.20 35.51 -2.68 2.09 -0.27 9.27 -1.02 15.91 -1.61 6.64 -0.59 12.64 -1.18 13.39 -1.34 0.75 -0.16 5.19 -0.64 9.91 -1.02 10.50 -0.96 22.65 -2.09 37.65 -3.59 6.32 -0.64 12.53 -1.02 13.87 -0.80 5.19 0.70 14.51 6.48 17.83 11.09 0.86 1.23 2.09 3.59 2.73 5.25 2.84 7.55 5.14 28.22 6.64 60.30 0.70 15.10 0.86 16.39 2.30 18.10 1.34 1.55 3.86 1.07 14.67 -2.89 17.99 -6.64 30.79 -10.39 41.77 -12.26 7.18 -1.23 9.37 -1.07 11.73 0.96 3.21 2.68 3.75 4.66 4.28 15.32 0.21 5.36 0.70 11.14 0.96 12.91 0.27 1.77 0.80 6.59 1.12 10.71 0.32 4.12 0.96 10.98 1.34 15.26 2.68 26.40 3.86 60.63 2.68 76.32 -2.25 30.10 -4.39 42.26 -12.16 67.21 -3.53 11.46 -4.66 14.30 -10.76 26.78 -5.41 11.09 -9.10 16.82 -19.07 29.46 -7.02 8.94 -12.75 14.78 -21.74 22.01 -13.92 11.25 -21.10 15.85 -36.42 23.30 -27.21 13.17 -46.86 18.16 -85.69 21.69 -3.53 0.32 -16.60 0.75 -28.97 0.96 -28.22 0.43 -25.17 -0.64 -37.22 13.23 -10.34 11.89 -20.62 21.69 -31.54 30.21 -10.18 7.87 -14.46 10.18 -18.69 10.18 -1.93 -0.05 -3.75 -0.43 -5.03 -1.12z m108.34 -70.32 c4.28 -0.48 11.41 -1.23 15.85 -1.66 38.67 -3.91 73.27 -15.69 98.87 -33.63 15.05 -10.55 30.85 -27.31 39.04 -41.45 1.29 -2.25 3.86 -6.59 5.73 -9.75 1.82 -3.11 3.91 -7.23 4.66 -9.16 0.70 -1.93 2.52 -6.69 4.02 -10.66 1.50 -3.91 3.21 -9.21 3.80 -11.78 8.30 -37.22 9.37 -44.24 9.91 -67.53 0.43 -19.92 -0.96 -41.88 -4.12 -64 -0.59 -4.12 -1.50 -12.69 -2.09 -19.12 -0.59 -6.37 -1.29 -12.21 -1.55 -12.96 -0.64 -1.66 -2.57 -3 -4.39 -3 -1.82 0 -23.08 6.27 -30.90 9.05 -3.16 1.12 -12 4.77 -19.66 8.09 -13.60 5.89 -22.71 9.75 -32.94 14.03 -8.52 3.53 -30.31 15.05 -42.47 22.33 -25.28 15.21 -35.19 22.87 -47.34 36.58 -10.71 12.10 -17.51 22.07 -23.99 35.29 -6.53 13.34 -11.84 29.88 -14.94 47.08 -3.11 16.87 -3.27 18.85 -3.27 39.36 0 19.28 0 19.28 2.36 39.36 1.23 11.03 2.62 20.89 3 21.85 0.64 1.39 1.02 1.71 2.41 1.71 1.98 0 2.46 -0.43 9.91 -9.32 8.35 -9.96 23.56 -27.42 29.67 -34.12 5.78 -6.32 9.43 -11.46 10.93 -15.32 0.48 -1.23 1.45 -5.09 2.09 -8.57 1.18 -6.21 1.23 -6.96 1.23 -47.56 0 -22.65 0.21 -41.93 0.48 -42.85 1.61 -5.62 7.44 -4.07 8.84 2.30 1.39 6.64 2.36 47.34 1.45 63.84 -0.43 7.98 -0.37 8.94 0.43 9.59 0.70 0.59 1.18 0.59 2.20 0.16 1.71 -0.80 6.32 -6.43 12.21 -15.10 2.73 -3.96 8.25 -11.62 12.32 -17.03 8.09 -10.76 9.48 -13.17 11.03 -18.85 1.55 -5.52 1.82 -11.46 1.18 -24.37 -2.09 -40.06 -2.14 -42.26 -0.80 -43.70 2.04 -2.25 4.61 -0.75 5.84 3.48 1.07 3.80 2.36 17.19 2.95 30.58 0.21 6.21 0.70 11.89 1.02 12.75 0.75 1.93 2.84 1.93 4.66 0 1.39 -1.50 6.53 -9.10 10.34 -15.32 1.12 -1.87 4.23 -6.43 6.86 -10.07 2.62 -3.64 6.53 -9.27 8.68 -12.43 8.52 -12.75 23.99 -31.92 27.85 -34.49 2.04 -1.39 4.98 -1.61 5.89 -0.54 2.30 2.78 0.75 6.86 -5.57 14.84 -2.20 2.78 -7.87 10.18 -12.59 16.33 -4.71 6.21 -9.75 12.64 -11.19 14.41 -1.45 1.71 -3.32 4.34 -4.12 5.89 -0.80 1.50 -2.89 4.61 -4.55 6.86 -1.66 2.25 -3.96 5.62 -5.09 7.50 -1.12 1.87 -3.64 5.84 -5.62 8.84 -4.12 6.27 -5.19 8.89 -4.23 10.07 0.37 0.43 1.18 0.80 1.82 0.80 0.59 0 6.80 -2.73 13.71 -6.11 11.62 -5.68 18.42 -8.41 35.35 -14.09 8.78 -3 11.78 -2.57 11.78 1.61 0 2.89 -2.73 4.71 -12.96 8.73 -5.09 1.98 -11.57 4.66 -14.35 5.94 -2.78 1.34 -7.02 3.27 -9.37 4.28 -6.91 2.95 -27.26 14.41 -36.15 20.24 -7.61 5.03 -10.93 8.35 -17.41 17.51 -3.21 4.50 -7.55 10.50 -9.64 13.28 -10.07 13.44 -13.50 19.23 -12.53 20.99 0.91 1.66 3.32 1.12 13.50 -2.84 20.73 -8.14 67.16 -23.51 70.96 -23.51 2.78 0 4.55 1.39 4.55 3.64 0 3.48 -1.66 4.45 -16.76 9.64 -48.95 16.92 -53.02 18.53 -72.03 28.06 -13.60 6.86 -16.76 8.89 -22.17 14.09 -2.73 2.62 -10.18 10.93 -16.55 18.37 -6.32 7.50 -13.92 16.28 -16.87 19.55 -7.71 8.57 -8.68 10.60 -6.11 12.43 1.02 0.80 2.30 0.86 9.21 0.64 4.45 -0.16 11.51 -0.70 15.80 -1.12z m-91.15 -69.94 c2.84 -0.32 7.12 -0.91 9.48 -1.34 2.36 -0.43 6.43 -0.91 9 -1.12 6.16 -0.48 7.18 -1.23 7.87 -6.11 0.27 -1.93 0.91 -8.19 1.39 -13.92 0.43 -5.73 1.18 -12.26 1.55 -14.46 4.61 -25.49 4.45 -24.90 9.16 -39.42 4.50 -13.92 9.85 -25.06 17.57 -36.31 9.75 -14.19 20.89 -27.47 30.15 -35.83 9.48 -8.57 12.64 -10.87 34.44 -25.01 13.01 -8.41 12 -7.87 25.12 -14.67 11.14 -5.84 17.30 -8.68 35.94 -16.71 6.86 -3 10.87 -5.03 11.73 -5.94 1.23 -1.39 1.29 -1.66 0.96 -7.12 -0.21 -3.11 -0.59 -7.93 -0.91 -10.71 -0.80 -7.18 -1.87 -19.82 -2.89 -32.94 -1.12 -14.30 -2.30 -24.42 -3.32 -27.96 -1.02 -3.59 -3.53 -6.21 -6.80 -7.07 -5.52 -1.34 -23.03 0.05 -55 4.45 -3.11 0.43 -10.55 1.29 -16.60 1.93 -6.05 0.59 -14.94 1.55 -19.82 2.14 -4.87 0.59 -12.59 1.29 -17.14 1.61 -4.55 0.32 -12.64 0.96 -17.94 1.39 -12.16 0.96 -29.67 2.20 -38.03 2.62 -3.53 0.16 -8.46 0.54 -10.98 0.80 -2.52 0.27 -11.78 0.75 -20.62 1.07 -8.84 0.32 -17.73 0.80 -19.76 1.12 -4.82 0.70 -7.55 2.25 -9.32 5.30 -1.34 2.25 -1.45 2.84 -1.45 8.84 0 9.59 0.86 10.60 9.16 11.19 7.23 0.48 10.66 2.52 12.05 7.28 0.86 2.84 -0.43 6.32 -2.78 7.71 -1.45 0.86 -2.41 0.96 -6.91 0.64 -8.52 -0.59 -9.64 0.59 -8.62 8.94 0.32 2.68 0.96 9.37 1.39 14.84 1.23 14.94 1.23 14.89 9.91 15.85 3.16 0.37 6.53 1.07 7.39 1.50 5.14 2.68 5.68 9.96 1.02 13.39 -1.34 1.02 -2.14 1.12 -7.18 0.96 -4.39 -0.11 -5.94 0.05 -6.91 0.70 -1.34 0.86 -2.62 4.61 -2.14 6 0.21 0.43 0.91 9.75 1.66 20.67 0.75 10.98 1.45 20.78 1.61 21.80 0.16 1.02 0.75 7.44 1.34 14.19 0.59 6.80 1.55 16.92 2.14 22.49 0.59 5.62 1.45 14.89 1.87 20.62 0.48 5.73 1.07 12.64 1.34 15.26 0.27 2.68 0.75 9.05 1.07 14.19 0.27 5.14 0.91 13.12 1.34 17.67 0.43 4.55 1.02 11.19 1.29 14.73 0.75 8.46 2.14 11.57 6.43 13.76 2.62 1.39 3.32 1.50 8.73 1.50 3.21 0 8.14 -0.27 11.03 -0.54z m-59.61 -172.77 c1.18 -0.48 2.41 -3.05 2.41 -5.03 0 -1.98 -1.23 -4.55 -2.41 -5.03 -3 -1.12 -7.12 0.54 -8.30 3.43 -0.59 1.45 -0.59 1.93 0.16 3.43 1.23 2.62 5.36 4.28 8.14 3.21z m-3.27 -55 c1.18 -0.86 1.98 -4.39 1.61 -6.69 -0.21 -0.96 -0.96 -2.20 -1.66 -2.78 -3.48 -2.73 -9.27 0.32 -9.27 4.82 0 1.23 2.46 4.23 3.96 4.82 1.71 0.70 4.28 0.64 5.36 -0.16z"/>
  <path d="M176.84 158.85 c-3.43 -1.55 -3.27 -5.57 0.27 -7.34 1.98 -1.02 14.30 -2.25 60.68 -6.11 4.87 -0.43 12.80 -1.12 17.67 -1.55 30.10 -2.68 30.90 -2.68 32.35 -1.71 2.52 1.61 2.30 4.71 -0.37 6.43 -0.64 0.43 -2.73 1.02 -4.66 1.34 -4.02 0.64 -24.10 2.57 -33.47 3.27 -7.12 0.54 -19.28 1.61 -35.08 3.21 -9.96 1.02 -26.40 2.52 -32.67 3 -1.93 0.16 -3.53 -0.05 -4.71 -0.54z"/>
  <path d="M175.02 117.88 c-3.80 -0.86 -4.87 -4.28 -2.09 -6.64 1.71 -1.45 6.48 -2.52 11.09 -2.52 3.27 0 13.92 -0.91 22.71 -1.93 3.70 -0.43 9.69 -1.02 13.39 -1.29 11.41 -0.91 25.39 -2.14 26.78 -2.41 0.75 -0.11 4.34 -0.48 8.03 -0.80 3.70 -0.27 9.10 -0.75 12.05 -1.07 2.95 -0.27 8.84 -0.75 13.12 -1.12 4.28 -0.32 12.37 -1.07 17.94 -1.66 19.17 -1.98 21.53 -1.98 23.03 0.32 1.71 2.57 -0.59 5.03 -5.78 6.16 -3.64 0.86 -37.49 4.71 -51.79 5.94 -3.70 0.32 -11.89 1.07 -18.21 1.66 -21.64 2.04 -21.15 1.98 -52.43 4.50 -15.10 1.18 -16.28 1.23 -17.83 0.86z"/>
 </g>
</svg>